<svg width="1199" height="557" viewBox="0 0 1199 557" fill="none" xmlns="http://www.w3.org/2000/svg">
<path d="M806.478 456.012C806.478 461.31 808.37 466.986 812.152 473.041C803.83 472.536 794.121 474.555 783.025 479.096C772.181 483.637 761.589 490.071 751.249 498.396C741.162 506.722 732.966 516.309 726.661 527.157L727.039 367.458C727.039 357.367 723.887 349.293 717.582 343.239C711.277 337.184 703.838 334.156 695.263 334.156C690.724 334.156 686.689 335.039 683.158 336.805C686.185 343.869 687.698 351.816 687.698 360.646L687.32 453.741C687.32 459.039 689.211 464.715 692.994 470.77C684.672 470.266 674.962 472.284 663.866 476.825C653.022 481.367 642.43 487.8 632.09 496.125C622.003 504.451 613.807 514.038 607.502 524.886L607.88 365.188C607.88 355.096 604.728 347.023 598.423 340.968C592.119 334.913 584.805 331.886 576.483 331.886C573.205 331.886 569.674 332.516 565.891 333.778L565.891 455.633C565.891 462.697 569.296 470.77 576.105 479.853C571.818 479.096 567.53 478.717 563.243 478.717C552.399 478.717 541.429 480.862 530.333 485.151C519.237 489.188 509.527 494.612 501.205 501.424C492.883 508.235 487.083 515.425 483.804 522.994V368.594C483.804 356.231 482.543 346.266 480.021 338.697C477.752 330.876 475.104 325.074 472.077 321.289C469.051 317.505 467.538 315.991 467.538 316.748C467.538 317.757 474.599 317.127 488.722 314.856C502.844 312.586 517.219 307.666 531.846 300.097C546.473 292.276 557.821 280.419 565.891 264.525V313.342C575.474 304.512 587.327 298.079 601.45 294.042C605.485 293.033 610.15 292.529 615.446 292.529C627.047 292.529 638.395 295.43 649.491 301.233C660.84 307.035 669.919 314.856 676.728 324.695C687.572 310.82 702.199 301.359 720.608 296.313C724.643 295.304 729.309 294.799 734.605 294.799C746.458 294.799 757.932 297.701 769.028 303.503C780.125 309.306 789.203 317.379 796.265 327.723C803.326 338.067 806.856 349.798 806.856 362.917L806.478 456.012Z" fill="black"/>
<path d="M754.908 246.133C754.908 251.784 757.631 258.444 763.079 266.114C759.447 265.508 755.917 265.206 752.487 265.206C743.812 265.206 735.035 266.921 726.158 270.352C717.483 273.582 709.817 277.921 703.159 283.37C696.501 288.82 691.861 294.673 689.238 300.93V251.279C680.361 263.591 668.256 271.765 652.923 275.802C649.695 276.609 645.963 277.013 641.726 277.013C632.244 277.013 623.064 274.692 614.187 270.05C605.31 265.408 598.047 258.949 592.398 250.674C586.749 242.399 583.925 233.014 583.925 222.519V148.648C583.925 145.217 583.219 141.08 581.806 136.236C580.394 131.392 578.074 126.952 574.846 122.915C575.653 123.117 577.267 123.218 579.688 123.218C585.74 123.218 593.205 122.309 602.082 120.493C610.959 118.475 619.634 115.447 628.108 111.411C636.581 107.172 643.138 101.824 647.779 95.3651V218.886C647.779 226.959 650.3 233.417 655.344 238.261C660.388 243.105 666.34 245.527 673.199 245.527C679.655 245.527 685.001 243.509 689.238 239.472V175.896C689.238 166.006 688.229 157.933 686.212 151.676C684.396 145.419 682.278 140.777 679.857 137.75C677.436 134.52 676.225 133.208 676.225 133.814C676.225 134.621 681.874 134.117 693.172 132.3C704.47 130.484 715.97 126.447 727.672 120.19C739.373 113.934 748.452 104.347 754.908 91.4294V246.133Z" fill="black"/>
<path d="M908.3 108.383C903.458 121.3 901.037 136.135 901.037 152.887C901.037 156.116 901.239 160.556 901.642 166.208C895.388 161.767 888.024 159.547 879.55 159.547C869.866 159.547 862.402 162.777 857.156 169.235V243.711C857.156 249.967 859.88 257.032 865.327 264.903C860.485 264.096 856.853 263.692 854.432 263.692C845.959 263.692 837.284 265.508 828.407 269.141C819.731 272.573 812.065 277.215 805.407 283.068C798.749 288.921 794.109 295.178 791.486 301.838V169.538C791.486 159.043 790.478 150.465 788.46 143.804C786.644 137.144 784.526 132.199 782.105 128.97C779.684 125.741 778.474 124.429 778.474 125.034C778.474 125.842 784.123 125.337 795.421 123.52C806.719 121.502 818.218 117.163 829.92 110.502C841.621 103.842 850.7 93.6495 857.156 79.925V138.355C862.603 130.08 869.766 123.016 878.643 117.163C887.52 111.31 897.405 108.383 908.3 108.383Z" fill="black"/>
<path d="M379.323 471.527C365.705 491.71 347.421 501.802 324.472 501.802C307.576 501.802 293.958 497.387 283.618 488.557C273.53 479.474 268.487 466.734 268.487 450.335C268.487 429.647 276.683 413.123 293.075 400.76C309.719 388.146 328.255 378.937 348.682 373.135C369.362 367.332 379.701 365.062 379.701 366.323V331.507C379.449 323.434 377.81 317.379 374.784 313.342C372.01 309.053 366.966 306.909 359.652 306.909C353.348 306.909 348.43 309.81 344.9 315.613C341.369 321.416 339.604 328.48 339.604 336.805C339.604 341.599 340.36 346.518 341.873 351.564L279.457 376.541C278.196 369.729 277.565 363.926 277.565 359.133C277.565 338.445 285.509 322.046 301.397 309.936C317.537 297.574 339.099 291.393 366.083 291.393C394.076 291.393 416.521 298.457 433.417 312.586C450.566 326.714 459.14 346.392 459.14 371.621V440.496C459.14 447.055 459.897 454.372 461.41 462.445C462.923 470.518 465.319 477.456 468.598 483.259C450.944 483.259 434.678 486.791 419.799 493.855C404.92 500.919 391.428 513.786 379.323 532.455L379.323 471.527ZM379.701 384.109C379.701 383.605 376.675 385.371 370.623 389.407C364.57 393.444 358.644 398.868 352.843 405.68C347.043 412.492 343.008 420.565 340.738 429.9C339.477 435.45 338.847 439.991 338.847 443.523C338.847 451.092 340.486 457.147 343.765 461.688C347.295 465.977 351.582 468.121 356.626 468.121C360.409 468.121 364.318 466.86 368.353 464.337C372.388 461.562 376.171 457.525 379.701 452.227V384.109Z" fill="black"/>
<path d="M244.673 25.355C238.977 25.355 233.281 24.9901 227.585 24.2602C228.137 24.6978 229.42 26.198 231.433 28.7609C234.459 32.2929 237.107 37.2126 239.377 43.5198C241.646 49.5747 242.781 57.0172 242.781 65.8473L242.785 267.868C237.073 257.8 228.27 249.621 216.377 243.332C198.976 233.745 176.405 228.952 148.665 228.952C121.681 228.952 97.2183 234.628 75.278 245.981C53.5899 257.334 36.0628 273.607 22.6969 294.799C9.58313 315.739 2.14359 340.337 0.378281 368.594C0.126094 370.864 0 374.396 0 379.19C0 396.345 2.64797 412.744 7.94391 428.386C13.2398 444.028 20.9316 457.651 31.0191 469.257C51.4463 492.467 78.5564 504.073 112.35 504.073C129.498 504.073 148.034 500.919 167.957 494.612V556.675C176.279 539.771 186.997 526.4 200.111 516.561C213.477 506.974 226.212 500.036 238.317 495.747C249.495 491.868 255.786 490.2 256.853 490.449C255.36 489.082 253.23 485.578 250.801 480.231C248.279 474.429 247.018 469.635 247.018 465.851L247.018 357.997C242.226 367.584 234.661 376.162 224.321 383.731C213.981 391.3 202.633 397.102 190.276 401.139C178.171 405.175 167.074 407.194 156.987 407.194C160.77 410.473 163.544 414.132 165.309 418.168C167.074 421.953 167.957 426.872 167.957 432.927L167.957 471.527C143.495 471.527 124.581 461.31 111.215 440.874C97.8488 420.439 91.1658 393.066 91.1658 358.754C91.1658 338.067 93.5616 319.397 98.3532 302.746C103.397 286.095 110.458 272.976 119.537 263.389C128.616 253.802 139.334 249.009 151.691 249.009C162.031 249.009 170.353 253.55 176.657 262.632C183.214 271.715 186.493 281.932 186.493 293.285C186.493 302.872 183.971 310.946 178.927 317.505C173.883 323.812 166.57 326.966 156.987 326.966C159.256 333.778 163.544 339.076 169.848 342.86C176.153 346.392 183.34 348.158 191.41 348.158C200.741 348.158 209.946 346.014 219.025 341.725C228.104 337.436 235.543 331.381 241.344 323.56C254.184 302.924 260.232 295.928 270.018 287.609C282.123 278.779 294.101 272.598 305.954 269.066C317.807 265.281 327.138 263.389 333.947 263.389C330.164 258.091 327.264 252.793 325.247 247.495C323.229 241.945 322.22 233.872 322.22 223.275L322.22 145.318H343.782C355.131 145.318 363.831 145.949 369.884 147.21C376.189 148.22 382.115 151.121 387.663 155.914V96.1219C381.358 102.177 375.054 106.087 368.749 107.853C362.444 109.619 354.122 110.502 343.782 110.502H322.22V32.9237C330.543 29.8962 338.991 28.3825 347.565 28.3825C357.653 28.3825 367.11 30.2746 375.936 34.059C384.763 37.591 391.824 42.7629 397.12 49.5747C402.668 56.1342 405.442 63.829 405.442 72.6591C405.442 75.6866 405.064 78.9663 404.307 82.4984C412.125 83.0029 419.187 81.3631 425.491 77.5787C431.796 73.7944 436.714 68.7486 440.244 62.4414C444.027 55.8819 445.918 48.944 445.918 41.6276C445.918 34.5635 444.027 28.004 440.244 21.9491C436.714 15.8942 431.291 10.9746 423.978 7.19022C415.151 2.39674 404.181 0 391.068 0C382.241 0 372.91 1.00916 363.075 3.02747C353.492 4.79348 341.261 7.6948 326.381 11.7314C307.467 16.2726 292.21 19.6785 280.609 21.9491C269.009 24.2197 257.03 25.355 244.673 25.355Z" fill="black"/>
<path d="M1005.18 377.298C1000.14 390.921 990.557 400.508 976.434 406.058C962.564 411.356 947.307 414.006 930.662 414.006C918.557 414.006 908.344 412.87 900.022 410.6C902.796 427.503 909.353 440.244 919.692 448.821C930.284 457.399 942.389 461.688 956.007 461.688C963.068 461.688 970.13 460.553 977.191 458.282C984.252 456.012 990.683 452.732 996.483 448.443C996.483 456.768 993.205 464.968 986.648 473.041C980.343 480.862 971.643 487.295 960.547 492.341C949.703 497.135 938.102 499.531 925.745 499.531C907.587 499.531 890.817 495.873 875.433 488.557C860.302 481.24 847.945 469.635 838.362 453.741C829.031 437.847 824.365 417.664 824.365 393.192C824.365 371.243 829.031 352.699 838.362 337.562C847.693 322.172 860.554 310.693 876.946 303.125C893.339 295.304 912.127 291.393 933.31 291.393C946.928 291.393 959.538 294.673 971.138 301.233C982.739 307.54 991.818 315.991 998.375 326.588C1005.18 336.931 1008.59 347.78 1008.59 359.133C1008.59 365.188 1007.45 371.243 1005.18 377.298ZM898.508 395.462C910.866 395.462 921.205 392.687 929.527 387.137C938.102 381.586 944.28 374.522 948.063 365.945C952.098 357.367 954.116 348.537 954.116 339.454C954.116 330.624 952.351 323.308 948.82 317.505C945.289 311.45 940.624 308.423 934.823 308.423C927.258 308.423 920.701 313.216 915.153 322.803C909.857 332.138 905.696 343.491 902.67 356.862C899.895 369.981 898.508 381.839 898.508 392.435V395.462Z" fill="black"/>
<path d="M1114.27 361.025C1134.19 366.828 1149.58 372.252 1160.42 377.298C1171.26 382.091 1179.96 388.65 1186.52 396.976C1193.08 405.302 1196.99 416.528 1198.25 430.657C1199 443.523 1194.59 456.264 1185.01 468.878C1175.68 481.24 1162.56 490.323 1145.67 496.125C1132.81 500.414 1119.44 502.559 1105.57 502.559C1092.71 502.559 1080.35 500.793 1068.5 497.261C1056.9 493.476 1046.56 487.8 1037.48 480.231C1030.16 473.167 1026.51 465.599 1026.51 457.525C1026.51 451.723 1028.27 446.425 1031.8 441.631C1035.33 436.585 1040 432.801 1045.8 430.278C1050.84 440.117 1057.91 448.821 1066.98 456.39C1076.31 463.706 1086.02 469.383 1096.11 473.419C1106.45 477.456 1115.91 479.474 1124.48 479.474C1134.57 479.474 1141.51 476.699 1145.29 471.149C1146.55 469.131 1147.18 466.986 1147.18 464.716C1147.18 458.661 1142.64 452.732 1133.56 446.929C1124.48 441.127 1112.38 436.207 1097.25 432.17C1048.32 418.547 1023.23 396.219 1021.97 365.188C1020.96 342.734 1027.64 325.074 1042.02 312.207C1056.64 299.088 1076.69 291.898 1102.16 290.636C1108.72 290.132 1113.64 289.88 1116.92 289.88C1130.79 289.88 1142.89 291.646 1153.23 295.178C1163.82 298.71 1171.89 303.251 1177.44 308.801C1183.24 314.352 1186.14 320.154 1186.14 326.209C1186.14 331.759 1183.75 337.057 1178.96 342.103C1174.16 346.897 1166.98 350.933 1157.39 354.213C1155.88 347.149 1152.73 340.211 1147.94 333.399C1143.14 326.588 1137.22 321.037 1130.16 316.748C1123.1 312.459 1115.53 310.567 1107.46 311.072C1100.9 311.324 1095.61 313.469 1091.57 317.505C1087.54 321.542 1085.52 326.461 1085.52 332.264C1085.52 338.319 1087.92 343.995 1092.71 349.294C1097.5 354.592 1104.69 358.502 1114.27 361.025Z" fill="black"/>
<path d="M384.245 197.088C384.245 178.116 388.986 161.969 398.469 148.648C408.153 135.328 419.854 125.438 433.573 118.979C447.292 112.521 460.103 109.291 472.007 109.291C483.506 109.291 496.015 112.117 509.532 117.768C523.049 123.218 534.751 132.603 544.637 145.924C554.522 159.043 559.465 176.097 559.465 197.088C559.465 216.06 554.522 231.702 544.637 244.013C534.751 256.123 522.948 264.903 509.229 270.352C495.712 275.802 483.305 278.527 472.007 278.527C459.7 278.527 446.788 275.802 433.27 270.352C419.753 264.903 408.153 256.123 398.469 244.013C388.986 231.702 384.245 216.06 384.245 197.088ZM444.77 197.088C445.174 215.051 447.696 230.794 452.336 244.316C457.178 257.839 463.735 264.6 472.007 264.6C480.884 264.6 487.844 257.738 492.888 244.013C497.931 230.289 500.453 214.647 500.453 197.088C500.453 186.189 499.243 174.886 496.822 163.18C494.602 151.474 491.375 141.685 487.138 133.814C482.901 125.942 477.857 122.007 472.007 122.007C463.533 122.007 456.875 129.071 452.033 143.199C447.191 157.327 444.77 175.29 444.77 197.088Z" fill="black"/>
</svg>
